<?xml version="1.0" encoding="utf-8"?>
<!-- Svg Vector Icons : http://www.onlinewebfonts.com/icon -->
<!DOCTYPE svg PUBLIC "-//W3C//DTD SVG 1.1//EN" "http://www.w3.org/Graphics/SVG/1.1/DTD/svg11.dtd">
<svg version="1.1" xmlns="http://www.w3.org/2000/svg" xmlns:xlink="http://www.w3.org/1999/xlink" x="0px" y="0px" fill="#0045FF" opacity="0.75" viewBox="0 0 1000 1000" enable-background="new 0 0 1000 1000" xml:space="preserve" >
<metadata> Svg Vector Icons : http://www.onlinewebfonts.com/icon </metadata>
<g><path d="M957.2,421.3H855.4c-18,0-37.5-14-43.2-31.1l-13.9-32.9c-8.3-16-4.6-39.6,8.2-52.4l72.4-72.4c12.8-12.8,12.8-33.6,0-46.4l-65-65c-12.8-12.8-33.6-12.8-46.4,0L694.7,194c-12.8,12.8-36.4,16.6-52.5,8.4L610,189.2c-17.2-5.6-31.2-24.9-31.2-42.9V42.8c0-18-14.8-32.8-32.8-32.8h-91.9c-18,0-32.8,14.8-32.8,32.8v103.4c0,18-14,37.4-31.2,42.9l-32.2,13.2c-16.1,8.1-39.7,4.3-52.5-8.4L232.4,121c-12.8-12.8-33.6-12.8-46.4,0l-65,65c-12.8,12.8-12.8,33.6,0,46.4l72.4,72.4c12.8,12.8,16.4,36.3,8.2,52.4l-13.9,32.9c-5.7,17.1-25.1,31.1-43.2,31.1H42.8c-18,0-32.8,14.8-32.8,32.8v91.9c0,18,14.8,32.8,32.8,32.8h100.7c18,0,37.3,14.1,42.8,31.3l14,34.3c8.1,16.1,4.3,39.8-8.5,52.5L121,767.6c-12.8,12.8-12.8,33.6,0,46.4l65,65c12.8,12.8,33.6,12.8,46.4,0l70.2-70.2c12.8-12.8,36.3-16.5,52.4-8.2l35,14.6c17.2,5.6,31.2,25,31.2,43v99c0,18,14.8,32.8,32.8,32.8h91.9c18,0,32.8-14.8,32.8-32.8v-99c0-18,14-37.4,31.2-43l25.5-10.6L585.9,755c-27.3,9.3-56.3,14.1-85.9,14.1c-71.3,0-138.3-27.8-188.7-78.2c-50.4-50.4-78.2-117.4-78.2-188.7s27.8-138.3,78.2-188.7c50.4-50.4,117.4-78.2,188.7-78.2s138.3,27.8,188.7,78.2c50.4,50.4,78.2,117.4,78.2,188.7c0,29-4.6,57.3-13.5,84.1l49.7,49.7l10.6-26c5.5-17.2,24.7-31.3,42.8-31.3h100.7c18,0,32.8-14.8,32.8-32.8v-91.9C990,436,975.2,421.3,957.2,421.3L957.2,421.3z M701.2,607.6c-10.5-10.3-15.4-18.6-9.5-35.1c30.9-87.1,2.6-176.4-73.2-229.4c-47.8-33.4-101.2-43-160.1-25.5c22,25.9,46.8,47.4,70,70.5c45.6,45.3,46.3,101.3,2.8,144.2c-42.2,41.5-99.1,40.2-142.9-4c-23-23.2-45.1-47.2-67.7-70.8c-2.7,1.6-5.4,3.2-8.1,4.8c-13,71.1,3.1,134.6,56.5,185.6c56.9,54.2,124.9,69.6,199.5,44.5c19.1-6.4,29.2-3,42.1,10.1C666.3,758.8,767,854.6,823.7,910c27.4,26.8,61.1,27.7,88.1,4.2c33.5-29.1,35.2-67.6,3.1-99.8C858.9,758.4,757.8,663,701.2,607.6L701.2,607.6z M864.7,890.3c-17.2,0-31.2-14-31.2-31.2s14-31.2,31.2-31.2s31.2,14,31.2,31.2C895.9,876.4,882,890.3,864.7,890.3z"/></g>
</svg>