<?xml version="1.0" encoding="utf-8"?>
<!-- Svg Vector Icons : http://www.onlinewebfonts.com/icon -->
<!DOCTYPE svg PUBLIC "-//W3C//DTD SVG 1.1//EN" "http://www.w3.org/Graphics/SVG/1.1/DTD/svg11.dtd">
<svg version="1.1" xmlns="http://www.w3.org/2000/svg" xmlns:xlink="http://www.w3.org/1999/xlink" opacity="0.75" x="0px" y="0px" viewBox="0 0 1000 1000" enable-background="new 0 0 1000 1000" xml:space="preserve" fill="#0045ff">
<metadata> Svg Vector Icons : http://www.onlinewebfonts.com/icon </metadata>
<g><g><path d="M867.5,71.3h-735C65,71.3,10,126.2,10,193.8v449.2c0,67.5,55,122.5,122.5,122.5h245v81.7H255c-22.5,0-40.8,18.3-40.8,40.8s18.3,40.8,40.8,40.8h490c22.5,0,40.8-18.3,40.8-40.8s-18.3-40.8-40.8-40.8H622.5v-81.7h245c67.5,0,122.5-55,122.5-122.5V193.8C990,126.2,935,71.3,867.5,71.3z M581.7,847.1H418.3v-81.7h163.3V847.1z M908.3,642.9c0,22.5-18.3,40.8-40.8,40.8h-735c-22.5,0-40.8-18.3-40.8-40.8V193.8c0-22.5,18.3-40.8,40.8-40.8h735c22.5,0,40.8,18.3,40.8,40.8V642.9z"/><path d="M826.7,193.8H173.3c-22.5,0-40.8,18.4-40.8,40.8v326.7c0,22.5,18.4,40.8,40.8,40.8h653.3c22.5,0,40.8-18.4,40.8-40.8V234.6C867.5,212.1,849.1,193.8,826.7,193.8z M826.7,561.3H173.3V234.6h653.3V561.3z"/></g></g>
</svg>